<?xml version="1.0" standalone="no"?><!DOCTYPE svg PUBLIC "-//W3C//DTD SVG 1.1//EN" "http://www.w3.org/Graphics/SVG/1.1/DTD/svg11.dtd"><svg t="1520651228626" class="icon" style="" viewBox="0 0 1024 1024" version="1.1" xmlns="http://www.w3.org/2000/svg" p-id="2921" xmlns:xlink="http://www.w3.org/1999/xlink" width="32" height="32"><defs><style type="text/css"></style></defs><path d="M292.571429 87.771429h438.857142l58.514286 117.028571H234.057143z" fill="#CB3434" p-id="2922"></path><path d="M292.571429 87.771429l234.057142 438.857142-117.028571 58.514286L234.057143 204.8z" fill="#FE5858" p-id="2923"></path><path d="M731.428571 87.771429l-234.057142 438.857142 117.028571 58.514286 175.542857-380.342857z" fill="#FE5858" p-id="2924"></path><path d="M506.148571 889.417143l-146.285714 43.885714-55.588571-140.434286-125.805715-87.771428 76.068572-134.582857-11.702857-152.137143 152.137143-23.405714L506.148571 292.571429l114.102858 102.4 149.211428 23.405714-8.777143 152.137143 76.068572 134.582857-125.805715 87.771428-58.514285 140.434286z" fill="#F0A524" p-id="2925"></path><path d="M512 629.028571m-219.428571 0a219.428571 219.428571 0 1 0 438.857142 0 219.428571 219.428571 0 1 0-438.857142 0Z" fill="#A15120" p-id="2926"></path><path d="M512 629.028571m-190.171429 0a190.171429 190.171429 0 1 0 380.342858 0 190.171429 190.171429 0 1 0-380.342858 0Z" fill="#FFD628" p-id="2927"></path><path d="M488.594286 760.685714H526.628571l52.662858-248.685714h-38.034286l-76.068572 46.811429-8.777142 40.96 73.142857-40.96h2.925714z" fill="#A15120" p-id="2928"></path></svg>