<?xml version="1.0" standalone="no"?><!DOCTYPE svg PUBLIC "-//W3C//DTD SVG 1.1//EN" "http://www.w3.org/Graphics/SVG/1.1/DTD/svg11.dtd"><svg t="1520651237862" class="icon" style="" viewBox="0 0 1024 1024" version="1.1" xmlns="http://www.w3.org/2000/svg" p-id="1947" xmlns:xlink="http://www.w3.org/1999/xlink" width="32" height="32"><defs><style type="text/css"></style></defs><path d="M292.571429 87.771429h438.857142l58.514286 117.028571H234.057143z" fill="#CB3434" p-id="1948"></path><path d="M292.571429 87.771429l234.057142 438.857142-117.028571 58.514286L234.057143 204.8z" fill="#FE5858" p-id="1949"></path><path d="M731.428571 87.771429l-234.057142 438.857142 117.028571 58.514286 175.542857-380.342857z" fill="#FE5858" p-id="1950"></path><path d="M506.148571 889.417143l-146.285714 43.885714-55.588571-140.434286-125.805715-87.771428 76.068572-134.582857-11.702857-152.137143 152.137143-23.405714L506.148571 292.571429l114.102858 102.4 149.211428 23.405714-8.777143 152.137143 76.068572 134.582857-125.805715 87.771428-58.514285 140.434286z" fill="#91B1CB" p-id="1951"></path><path d="M512 629.028571m-219.428571 0a219.428571 219.428571 0 1 0 438.857142 0 219.428571 219.428571 0 1 0-438.857142 0Z" fill="#3B4A56" p-id="1952"></path><path d="M512 629.028571m-190.171429 0a190.171429 190.171429 0 1 0 380.342858 0 190.171429 190.171429 0 1 0-380.342858 0Z" fill="#E7F5FF" p-id="1953"></path><path d="M438.857143 582.217143h38.034286c5.851429-23.405714 23.405714-40.96 49.737142-40.96 23.405714 0 40.96 14.628571 40.96 35.108571 0 17.554286-8.777143 29.257143-55.588571 67.291429L409.6 731.428571l-5.851429 29.257143h169.691429l5.851429-35.108571h-117.028572v-2.925714l67.291429-55.588572c55.588571-46.811429 70.217143-67.291429 70.217143-96.548571 0-38.034286-32.182857-64.365714-76.068572-64.365715S444.708571 538.331429 438.857143 582.217143z" fill="#3B4A56" p-id="1954"></path></svg>