<?xml version="1.0" standalone="no"?><!DOCTYPE svg PUBLIC "-//W3C//DTD SVG 1.1//EN" "http://www.w3.org/Graphics/SVG/1.1/DTD/svg11.dtd"><svg t="1520651246947" class="icon" style="" viewBox="0 0 1024 1024" version="1.1" xmlns="http://www.w3.org/2000/svg" p-id="1863" xmlns:xlink="http://www.w3.org/1999/xlink" width="32" height="32"><defs><style type="text/css"></style></defs><path d="M292.571429 87.771429h438.857142l58.514286 117.028571H234.057143z" fill="#CB3434" p-id="1864"></path><path d="M292.571429 87.771429l234.057142 438.857142-117.028571 58.514286L234.057143 204.8z" fill="#FE5858" p-id="1865"></path><path d="M731.428571 87.771429l-234.057142 438.857142 117.028571 58.514286 175.542857-380.342857z" fill="#FE5858" p-id="1866"></path><path d="M506.148571 889.417143l-146.285714 43.885714-55.588571-140.434286-125.805715-87.771428 76.068572-134.582857-11.702857-152.137143 152.137143-23.405714L506.148571 292.571429l114.102858 102.4 149.211428 23.405714-8.777143 152.137143 76.068572 134.582857-125.805715 87.771428-58.514285 140.434286z" fill="#DB946B" p-id="1867"></path><path d="M512 629.028571m-219.428571 0a219.428571 219.428571 0 1 0 438.857142 0 219.428571 219.428571 0 1 0-438.857142 0Z" fill="#774427" p-id="1868"></path><path d="M512 629.028571m-190.171429 0a190.171429 190.171429 0 1 0 380.342858 0 190.171429 190.171429 0 1 0-380.342858 0Z" fill="#FBD4AE" p-id="1869"></path><path d="M479.817143 649.508571h26.331428c29.257143 0 49.737143 14.628571 49.737143 35.108572 0 29.257143-20.48 46.811429-55.588571 46.811428-29.257143 0-52.662857-17.554286-49.737143-40.96H412.525714v8.777143c0 38.034286 38.034286 67.291429 87.771429 67.291429 55.588571 0 96.548571-32.182857 96.548571-78.994286 0-26.331429-14.628571-43.885714-43.885714-49.737143v-2.925714c35.108571-5.851429 58.514286-32.182857 58.514286-64.365714 0-35.108571-32.182857-61.44-78.994286-61.44s-78.994286 26.331429-87.771429 67.291428h38.034286c5.851429-20.48 26.331429-35.108571 49.737143-35.108571 26.331429 0 43.885714 14.628571 43.885714 35.108571 0 23.405714-20.48 43.885714-49.737143 43.885715h-35.108571l-11.702857 29.257142z" fill="#774427" p-id="1870"></path></svg>