<?xml version="1.0" standalone="no"?><!DOCTYPE svg PUBLIC "-//W3C//DTD SVG 1.1//EN" "http://www.w3.org/Graphics/SVG/1.1/DTD/svg11.dtd"><svg t="1520495421195" class="icon" style="" viewBox="0 0 1024 1024" version="1.1" xmlns="http://www.w3.org/2000/svg" p-id="2190" xmlns:xlink="http://www.w3.org/1999/xlink" width="32" height="32"><defs><style type="text/css"></style></defs><path d="M896.80782 289.377282q-25.0724-30.922627-46.175003-44.921383a324.687579 324.687579 0 0 0-42.832017-24.027716l-47.01075-22.147287q-25.0724-11.90939-58.29333-38.444347-38.653283-29.042197-61.009506-58.920139t-37.6086-53.27885q-15.252377-23.400907-30.08688-36.772853T535.138451 0.62681q-28.20645 2.716177-45.548193 23.19197c-11.491517 13.78982-17.55068 31.3405-17.968554 53.27885-3.342987 111.154306-15.04344 618.661468-15.04344 618.661468q-16.714933-7.103847-52.025229-15.879187c-23.609843-5.64129-50.1448-8.357467-80.23168-7.939593a318.210542 318.210542 0 0 0-93.812563 16.505997q-48.89118 15.879187-91.305323 57.666519T94.908896 836.791347A149.18078 149.18078 0 0 0 121.652789 927.678797q28.20645 41.787333 81.067426 69.993783t119.302837 26.32602q65.18824-1.88043 109.691749-21.729413t71.45634-48.473307q27.161767-28.624323 37.399663-61.845253t9.820023-60.17376l1.462557-64.143556 12.118327-495.806709 1.044683-48.473306q0.417873-17.968553 13.998757-24.44559c9.193213-4.38767 21.729413 1.671493 37.817536 17.759617a653.136018 653.136018 0 0 0 63.30781 59.338013 205.593679 205.593679 0 0 0 88.589146 43.24989q48.26437 10.02896 70.82953 31.3405t27.161767 65.397176q2.716177 27.161767 8.77534 37.399663c3.969797 6.89491 8.566403 10.65577 13.78982 11.491517s11.700453-4.178733 19.43111-14.834503 13.580883-24.654527 17.341743-41.787334 3.969797-36.35498 0.835747-57.457583-13.371947-41.578397-30.08688-61.42738z" fill="#1296db" p-id="2191"></path></svg>