<?xml version="1.0" standalone="no"?><!DOCTYPE svg PUBLIC "-//W3C//DTD SVG 1.1//EN" "http://www.w3.org/Graphics/SVG/1.1/DTD/svg11.dtd"><svg t="1520514021092" class="icon" style="" viewBox="0 0 1024 1024" version="1.1" xmlns="http://www.w3.org/2000/svg" p-id="6010" xmlns:xlink="http://www.w3.org/1999/xlink" width="32" height="32"><defs><style type="text/css"></style></defs><path d="M70.7 512.2C70.7 754 267.8 950 511 950s440.3-196 440.3-437.8S754.2 74.5 511 74.5 70.7 270.5 70.7 512.2z" fill="#FDDE5F" p-id="6011"></path><path d="M501.1 679.8c-10.3-19.4-29-32.6-48.9-34.5-19.9-1.9-38 7.8-47.6 25.3-9.6 17.6-9.1 40.3 1.3 59.8 10.3 19.4 29 32.6 48.9 34.5 19.9 1.9 38-7.8 47.6-25.3 9.5-17.5 9-40.3-1.3-59.8z" fill="#E5C53E" p-id="6012"></path><path d="M242.7 568.5c-2.7-31.1-26.1-54.4-52.2-52.1-26.1 2.3-45.1 29.3-42.4 60.4 2.7 31.1 26.1 54.4 52.2 52.1 26.2-2.3 45.1-29.3 42.4-60.4z" fill="#FFFFFF" p-id="6013"></path><path d="M543.7 813.8c-21.4-4.9-42.1 5.6-46.3 23.6-4.1 18 9.9 36.5 31.3 41.5 21.4 4.9 42.1-5.6 46.3-23.6 4.2-18-9.8-36.5-31.3-41.5z" fill="#E5C53E" p-id="6014"></path><path d="M83 618.5c25.7 95 80.9 179.7 156.6 238.8-11.6-39.8-23.1-78.3 14.1-106.6 42.4-33.4 23.1-61.6 33.4-104 14.1-59.1 68-44.9 68-118.1s35.9-68 50.1-118.1c14.1-50.1-9-47.5 0-92.4 14.1-16.7-174.6 9-174.6 9l-6.4 2.6s-41.1 21.8-52.6 53.9c-9 33.4 2.6 39.8-33.4 80.9-28.2 30.8 5.1 68-28.2 95-18 16.6-24.4 39.7-27 59z" fill="#A4E1FC" p-id="6015"></path><path d="M179.3 348.9c-5.1 0-11.6-5.1-14.1-11.6 0-5.1 2.6-14.1 11.6-14.1 0 0 139.9-28.2 252.9-28.2 9 0 14.1 5.1 14.1 14.1s-5.1 14.1-14.1 14.1c-110.5-2.6-247.8 25.7-250.4 25.7 2.6 0 0 0 0 0z" fill="#63520C" p-id="6016"></path><path d="M935.5 615.9c-24.4 95-80.9 179.7-155.3 238.8 11.6-39.8 21.8-78.3-14.1-106.6-41.1-33.4-21.8-61.6-33.4-104-14.1-59-66.7-44.9-66.7-118.1s-35.9-68-50.1-118.1c-14.1-50.1 7.7-47.5 0-92.4-14.1-16.7 172 9 172 9l5.1 2.6s42.4 23.1 52.6 53.9c7.7 33.4-2.6 39.8 33.4 80.9 28.2 30.8-5.1 68 28.2 95 20.6 16.6 28.3 38.5 28.3 59z" fill="#A4E1FC" p-id="6017"></path><path d="M841.8 346.3c-2.6 0-138.6-25.7-246.5-25.7-7.7 0-14.1-5.1-14.1-14.1s5.1-14.1 14.1-14.1c111.7 0 250.3 25.7 250.3 28.2 5.1 0 11.6 9 11.6 14.1-5.1 5.2-10.2 11.6-15.4 11.6z" fill="#63520C" p-id="6018"></path><path d="M572.6 472.4c-9 0-16.7-5.1-16.7-16.7v-47.5c0-19.3-14.1-33.4-33.4-33.4h-19.3c-19.3 0-33.4 14.1-33.4 33.4v47.5c0 9-5.1 16.7-16.7 16.7-9 0-16.7-5.1-16.7-16.7v-47.5c0-35.9 28.2-64.2 64.2-64.2h25.7c35.9 0 61.6 28.2 61.6 64.2v47.5c0.1 9-6.3 16.7-15.3 16.7z" fill="#AF962E" p-id="6019"></path><path d="M342.8 188.7h-2.6c-5.1 0-11.6-5.1-9-11.6 0-5.1 5.1-11.6 11.6-9 0 0 42.4 2.6 53.9-28.2 2.6-5.1 9-9 14.1-5.1 5.1 2.6 9 9 5.1 14.1-16.6 37.2-61.5 39.8-73.1 39.8z m326.1 0c-14.1 0-56.5-2.6-70.6-39.8-2.6-5.1 0-11.6 5.1-14.1 5.1-2.6 11.6 0 14.1 5.1 11.6 30.8 53.9 28.2 53.9 28.2 5.1 0 11.6 2.6 11.6 9 0 5.1-2.6 11.6-9 11.6h-5.1z" fill="#63520C" p-id="6020"></path></svg>