<?xml version="1.0" standalone="no"?><!DOCTYPE svg PUBLIC "-//W3C//DTD SVG 1.1//EN" "http://www.w3.org/Graphics/SVG/1.1/DTD/svg11.dtd"><svg t="1519548556820" class="icon" style="" viewBox="0 0 1024 1024" version="1.1" xmlns="http://www.w3.org/2000/svg" p-id="4803" xmlns:xlink="http://www.w3.org/1999/xlink" width="32" height="32"><defs><style type="text/css"></style></defs><path d="M512.397235 0.000395a528.197327 528.197327 0 0 0-57.67899 3.160493 515.555357 515.555357 0 0 0-131.950566 33.185172s344.493694 340.148017 353.185049 353.185049V26.469521l-31.209865-9.87654A531.35782 531.35782 0 0 0 512.397235 0.000395z" fill="#F85352" p-id="4804"></path><path d="M871.113146 148.543548a495.802278 495.802278 0 0 0-43.061712-39.506158A513.580049 513.580049 0 0 0 713.088516 39.506553v500.147955l256.790024-256.790025c-4.740739-9.876539-10.271601-19.358017-15.407401-28.444433a498.172647 498.172647 0 0 0-79.012315-105.876502z" fill="#6367EF" p-id="4805"></path><path d="M984.495818 322.765703s-340.148017 344.493694-353.185048 353.185049h363.061588c3.160493-10.271601 6.320985-20.14814 9.876539-31.209865a501.728201 501.728201 0 0 0 17.777771-131.160443 528.197327 528.197327 0 0 0-3.160492-57.67899 531.35782 531.35782 0 0 0-34.370358-132.74069z" fill="#5283EF" p-id="4806"></path><path d="M479.212063 713.876663l256.790024 256.790024c9.876539-4.740739 19.358017-10.271601 29.234557-15.407401a503.308448 503.308448 0 0 0 105.876502-79.012315A495.407216 495.407216 0 0 0 910.619304 829.629705a513.580049 513.580049 0 0 0 69.925899-118.518473s-484.345492 2.765431-500.147955 0z" fill="#00B0FD" p-id="4807"></path><path d="M348.05162 632.098917v363.061588c10.271601 3.160493 21.333325 6.320985 31.209864 9.876539a501.728201 501.728201 0 0 0 131.950566 17.777771 506.864002 506.864002 0 0 0 189.629557-35.16048S357.533097 645.926072 348.05162 632.098917z" fill="#64D01F" p-id="4808"></path><path d="M311.705955 482.370579l-256.790025 256.790025c4.740739 9.876539 10.271601 19.358017 15.407402 29.234556a503.308448 503.308448 0 0 0 79.012315 105.876503 495.802278 495.802278 0 0 0 43.061712 39.506157 513.580049 513.580049 0 0 0 118.518472 69.925899s-2.765431-485.135615 0-500.147955z" fill="#9AD121" p-id="4809"></path><path d="M18.965327 379.259508A501.33314 501.33314 0 0 0 1.977679 510.815013a528.197327 528.197327 0 0 0 3.160493 57.67899 515.555357 515.555357 0 0 0 33.185172 132.345628S378.471361 355.555813 391.113331 347.654582H28.841866c-3.555554 11.061724-7.111108 20.938264-9.876539 31.604926z" fill="#FFC716" p-id="4810"></path><path d="M255.607211 69.926294a487.505985 487.505985 0 0 0-105.481441 79.012315c-13.827155 13.827155-26.469126 28.444433-39.506158 43.061712A513.580049 513.580049 0 0 0 41.483837 311.308917s484.345492-2.765431 499.752893 0L284.051644 54.913954l-28.444433 15.01234z" fill="#FF7612" p-id="4811"></path></svg>