<?xml version="1.0" standalone="no"?><!DOCTYPE svg PUBLIC "-//W3C//DTD SVG 1.1//EN" "http://www.w3.org/Graphics/SVG/1.1/DTD/svg11.dtd"><svg t="1520127744716" class="icon" style="" viewBox="0 0 1024 1024" version="1.1" xmlns="http://www.w3.org/2000/svg" p-id="17497" xmlns:xlink="http://www.w3.org/1999/xlink" width="64" height="64"><defs><style type="text/css"></style></defs><path d="M806.582857 398.994286a452.754286 452.754286 0 0 0-71.131428-7.68h-32.914286c-73.142857 0-121.965714 15.177143-129.462857 38.034285A205.714286 205.714286 0 0 0 603.428571 571.611429c25.417143 35.474286 83.748571 60.891429 137.142858 60.891428a123.062857 123.062857 0 0 0 45.714285-7.68c40.594286-18.285714 86.308571-119.405714 76.251429-172.617143a67.657143 67.657143 0 0 0-55.954286-53.394285zM832 475.428571a10.971429 10.971429 0 0 1-10.24 10.24h-2.56c-5.12 0-10.24-7.68-10.24-12.617142a25.051429 25.051429 0 0 0-2.56-20.297143c-2.56-5.12-12.617143-7.68-25.417143-10.24a453.302857 453.302857 0 0 0-53.028571-3.657143h-5.12a13.531429 13.531429 0 0 1-12.617143-12.617143 12.068571 12.068571 0 0 1 12.617143-12.617143h5.12a534.491429 534.491429 0 0 1 58.331428 2.56 62.72 62.72 0 0 1 40.594286 20.297143A61.074286 61.074286 0 0 1 832 475.428571z m0 0M324.022857 388.754286h-32.914286a425.508571 425.508571 0 0 0-71.131428 7.68A68.205714 68.205714 0 0 0 164.571429 447.268571c-10.24 53.394286 33.097143 154.88 76.251428 172.617143a123.062857 123.062857 0 0 0 45.714286 7.68c53.394286 0 111.725714-25.417143 137.142857-60.891428a237.714286 237.714286 0 0 0 30.537143-142.262857c-7.68-20.297143-55.954286-35.474286-129.462857-35.474286z m0 0" fill="#9B9B9B" p-id="17498"></path><path d="M512 53.577143a457.142857 457.142857 0 1 0 457.142857 457.142857 458.422857 458.422857 0 0 0-457.142857-457.142857z m284.525714 599.405714a141.165714 141.165714 0 0 1-58.331428 10.24c-63.451429 0-132.022857-30.537143-162.56-73.142857a245.028571 245.028571 0 0 1-38.034286-121.965714 25.6 25.6 0 0 0-50.834286 0 244.845714 244.845714 0 0 1-38.034285 121.965714c-30.537143 43.154286-99.108571 73.142857-162.56 73.142857a141.165714 141.165714 0 0 1-58.331429-10.24c-55.954286-22.857143-106.605714-142.262857-93.988571-208.274286a91.428571 91.428571 0 0 1 78.811428-73.142857 315.794286 315.794286 0 0 1 76.251429-7.68h35.474285c45.714286 0 99.108571 5.12 132.022858 25.417143a128.914286 128.914286 0 0 0 58.331428 20.297143 128.914286 128.914286 0 0 0 58.331429-20.297143c33.097143-20.297143 86.308571-25.417143 132.022857-25.417143h35.474286a540.708571 540.708571 0 0 1 76.251428 7.68 94.902857 94.902857 0 0 1 78.811429 73.142857c10.24 66.011429-43.154286 182.857143-99.108572 208.274286z m0 0" fill="#9B9B9B" p-id="17499"></path></svg>