<?xml version="1.0" standalone="no"?><!DOCTYPE svg PUBLIC "-//W3C//DTD SVG 1.1//EN" "http://www.w3.org/Graphics/SVG/1.1/DTD/svg11.dtd"><svg t="1520559255405" class="icon" style="" viewBox="0 0 1159 1024" version="1.1" xmlns="http://www.w3.org/2000/svg" p-id="10720" xmlns:xlink="http://www.w3.org/1999/xlink" width="36.21875" height="32"><defs><style type="text/css"></style></defs><path d="M77.283019 309.132075l4.830189 24.150944 115.924528-25.116981-9.660378-46.369812-73.418867 15.456604 4.830188 2.898113c2.898113 12.558491-5.796226 25.116981-18.354717 28.015095-4.830189 0.966038-9.660377 0-14.490566-0.966038-0.966038 0.966038-2.898113 0.966038-4.830188 0.966038-1.932075 0.966038-2.898113 0.966038-4.830189 0.966037zM412.498113 56.996226c0.966038-2.898113 0.966038-4.830189 0-7.728301l11.592453-21.252831 40.573585 24.150944-57.962264 102.4-40.573585-24.150944 32.845283-56.996226c1.932075-0.966038 4.830189-1.932075 6.762264-3.864151s3.864151-3.864151 4.830189-5.796226 0.966038-4.830189 1.932075-6.762265z" fill="#FFFFFF" p-id="10721"></path><path d="M397.041509 1022.067925c-4.830189 0-8.69434-1.932075-12.55849-4.830189-6.762264-6.762264-6.762264-18.354717 0-25.116981l39.607547-40.573585c6.762264-6.762264 18.354717-6.762264 25.116981 0 6.762264 6.762264 6.762264 18.354717 0 25.116981l-39.607547 40.573585c-3.864151 2.898113-7.728302 4.830189-12.558491 4.830189z" fill="#15A3F9" p-id="10722"></path><path d="M81.14717 752.543396c-4.830189 0-8.69434-1.932075-12.558491-4.830188-6.762264-6.762264-6.762264-18.354717 0-25.116982l67.622642-67.622641c6.762264-6.762264 18.354717-6.762264 25.116981 0 6.762264 6.762264 6.762264 18.354717 0 25.116981l-67.622642 67.622642c-3.864151 3.864151-8.69434 4.830189-12.55849 4.830188zM487.849057 929.328302c-4.830189 0-8.69434-1.932075-12.558491-4.830189-6.762264-6.762264-6.762264-18.354717 0-25.116981l67.622642-67.622641c6.762264-6.762264 18.354717-6.762264 25.116981 0 6.762264 6.762264 6.762264 18.354717 0 25.116981l-67.622642 67.622641c-2.898113 2.898113-7.728302 4.830189-12.55849 4.830189z" fill="#41D6FF" p-id="10723"></path><path d="M895.516981 211.562264c-4.830189 0-8.69434-1.932075-12.55849-5.796226-6.762264-6.762264-6.762264-18.354717 0-25.116981l50.233962-49.267925c6.762264-6.762264 18.354717-6.762264 25.116981 0s6.762264 18.354717 0 25.116981L908.075472 206.732075c-3.864151 3.864151-7.728302 4.830189-12.558491 4.830189z" fill="#15A3F9" p-id="10724"></path><path d="M1085.826415 437.615094c-4.830189 0-8.69434-1.932075-12.55849-5.796226-6.762264-6.762264-6.762264-18.354717 0-25.116981l50.233962-49.267925c6.762264-6.762264 18.354717-6.762264 25.116981 0s6.762264 18.354717 0 25.116981l-50.233962 49.267925c-3.864151 4.830189-8.69434 5.796226-12.558491 5.796226z" fill="#4677FF" p-id="10725"></path><path d="M615.366038 211.562264c-215.426415 0-390.279245 175.818868-390.279246 393.177359s174.85283 393.177358 390.279246 393.177358 390.279245-175.818868 390.279245-393.177358c0-217.358491-174.85283-393.177358-390.279245-393.177359z" fill="#44B5FA" p-id="10726"></path><path d="M89.841509 64.724528C40.573585 64.724528 0 105.298113 0 154.566038c0 50.233962 40.573585 90.807547 89.841509 90.807547s89.841509-40.573585 89.84151-90.807547c0-49.267925-40.573585-89.841509-89.84151-89.84151z" fill="#CCDBF8" p-id="10727"></path><path d="M413.464151 0c-26.083019 0-47.335849 21.25283-47.335849 48.301887 0 26.083019 21.25283 48.301887 47.335849 48.301887s47.335849-21.25283 47.335849-48.301887-21.25283-48.301887-47.335849-48.301887z" fill="#7598F7" p-id="10728"></path><path d="M867.501887 690.716981c-76.316981 173.886792-204.8 142.973585-249.237736 296.573585 215.426415 0 390.279245-175.818868 390.279245-393.177358 0-114.958491-49.267925-219.290566-128.483019-290.777359-58.928302 136.211321 63.758491 213.49434-12.55849 387.381132z" fill="#2291F5" p-id="10729"></path><path d="M572.860377 988.256604c-226.05283 0-409.6-185.479245-409.6-412.498113 0-10.626415 8.69434-19.320755 19.320755-19.320755s19.320755 8.69434 19.320755 19.320755c0 205.766038 166.158491 373.856604 370.95849 373.856603 56.996226 0 110.128302-11.592453 157.464151-34.777358 9.660377-4.830189 21.25283-0.966038 26.083019 8.694339s0.966038 21.25283-8.694339 26.083019c-54.098113 26.083019-112.060377 38.641509-174.852831 38.64151zM810.50566 908.075472c-5.796226 0-11.592453-2.898113-15.456603-7.728302-6.762264-8.69434-4.830189-20.286792 3.864151-27.049057 11.592453-8.69434 24.150943-19.320755 38.641509-33.811321 7.728302-7.728302 19.320755-7.728302 27.049057 0s7.728302 19.320755 0 27.049057c-16.422642 16.422642-29.94717 28.015094-42.505661 37.675472-3.864151 2.898113-7.728302 3.864151-11.592453 3.864151z m92.739623-103.366038c-3.864151 0-6.762264-0.966038-10.626415-2.898113-8.69434-5.796226-11.592453-17.388679-5.796226-27.049057 37.675472-59.89434 56.996226-128.483019 56.996226-198.037736C943.818868 370.958491 777.660377 202.867925 572.860377 202.867925c-123.65283 0-237.645283 61.826415-306.233962 164.226415-21.25283 29.94717-36.709434 62.792453-48.301887 99.501886-2.898113 10.626415-13.524528 15.456604-24.150943 12.558491-10.626415-2.898113-15.456604-13.524528-12.558491-24.150943 12.558491-40.573585 29.94717-77.283019 53.132076-110.128302C310.098113 231.849057 436.649057 164.226415 572.860377 164.226415c226.05283 0 409.6 185.479245 409.6 412.498113 0 77.283019-21.25283 152.633962-62.792452 219.290566-3.864151 5.796226-9.660377 8.69434-16.422642 8.69434z" fill="#4C3A30" p-id="10730"></path><path d="M804.709434 465.630189l-260.830189 263.728302c-6.762264 6.762264-14.490566 9.660377-23.184905 9.660377s-16.422642-2.898113-23.184906-9.660377L346.807547 577.690566c-12.558491-12.558491-12.558491-33.811321 0-46.369811s33.811321-12.558491 46.369811 0l127.516982 128.483019 238.61132-239.577359c12.558491-12.558491 33.811321-12.558491 46.369812 0 12.558491 11.592453 12.558491 32.845283-0.966038 45.403774z" fill="#4C3A30" p-id="10731"></path></svg>