<?xml version="1.0" standalone="no"?><!DOCTYPE svg PUBLIC "-//W3C//DTD SVG 1.1//EN" "http://www.w3.org/Graphics/SVG/1.1/DTD/svg11.dtd"><svg t="1519470896532" class="icon" style="" viewBox="0 0 1206 1024" version="1.1" xmlns="http://www.w3.org/2000/svg" p-id="3545" xmlns:xlink="http://www.w3.org/1999/xlink" width="18.84375" height="16"><defs><style type="text/css"></style></defs><path d="M985.659151 214.846867l-102.191522 45.731685-99.998906 44.478762a49.279023 49.279023 0 0 1-40.054378-90.053831L798.73872 190.571487l17.971613-7.830768a49.279023 49.279023 0 1 0-40.054378-90.053831L678.144894 137.048188A451.13054 451.13054 0 0 0 104.384528 574.435731l-23.492304 10.414921a49.138069 49.138069 0 0 0 35.629994 91.463369v0.313231l3.915384-1.879384 5.677307-2.505846a49.279023 49.279023 0 0 1 40.054378 90.053831l-16.718689 7.243461-89.505678 40.171839a49.279023 49.279023 0 1 0 40.054378 90.053831L203.130512 853.563454l65.26945-29.012996a49.279023 49.279023 0 0 1 40.054378 90.053832L278.188422 927.955749l-3.484691 1.566153a49.279023 49.279023 0 1 0 40.054377 90.053832l68.127681-30.265918a451.365463 451.365463 0 0 0 602.1469-558.098831l-3.484691 1.566154a49.279023 49.279023 0 1 1-40.054378-90.053831l2.819076-1.252923L1025.83099 305.409699a49.494369 49.494369 0 0 0-40.054378-90.523678" fill="#D6EAFF" p-id="3546"></path><path d="M1061.656753 983.397586h-377.834552a7.830768 7.830768 0 0 1-7.830768-7.830768v-5.677307a7.830768 7.830768 0 0 1 7.830768-7.830768h377.873706a7.830768 7.830768 0 0 1 7.830768 7.830768v5.677307a7.830768 7.830768 0 0 1-7.830768 7.830768m-427.716544 0h-31.323072a7.830768 7.830768 0 0 1-7.830768-7.830768v-5.677307a7.830768 7.830768 0 0 1 7.830768-7.830768h31.323072a7.830768 7.830768 0 0 1 7.830768 7.830768v5.677307a7.830768 7.830768 0 0 1-7.830768 7.830768m-68.440912 0h-104.110059a7.830768 7.830768 0 0 1-7.830768-7.830768v-5.677307a7.830768 7.830768 0 0 1 7.830768-7.830768h104.070906a7.830768 7.830768 0 0 1 7.830767 7.830768v5.677307a7.830768 7.830768 0 0 1-7.830767 7.830768m633.391663-72.865296h-129.638363a7.830768 7.830768 0 0 1-7.830768-7.830768v-5.677306a7.830768 7.830768 0 0 1 7.830768-7.830768h129.638363a7.830768 7.830768 0 0 1 7.830768 7.830768v5.677306a7.830768 7.830768 0 0 1-7.830768 7.830768m-184.023046 0H193.067975a7.830768 7.830768 0 0 1-7.830768-7.830768v-5.677306a7.830768 7.830768 0 0 1 7.830768-7.830768h821.917402a7.830768 7.830768 0 0 1 7.830768 7.830768v5.677306a7.830768 7.830768 0 0 1-7.830768 7.830768" fill="#3396FF" p-id="3547"></path><path d="M0.000392 282.974548A23.492304 23.492304 0 1 0 11.746543 262.340475a23.492304 23.492304 0 0 0-11.746151 20.477458" fill="#80CDFF" p-id="3548"></path><path d="M413.89563 576.197653a117.226596 117.226596 0 1 0 117.226596-117.226595 118.048827 118.048827 0 0 0-117.226596 117.226595" fill="#80CDFF" p-id="3549"></path><path d="M677.714202 418.642603a11.002229 11.002229 0 0 1-7.321768-1.840231 14.212844 14.212844 0 0 1-3.680461-18.323997l18.480612-25.606611a13.194844 13.194844 0 0 1 21.808689 14.760998l-18.323997 25.645765a15.661536 15.661536 0 0 1-11.002229 5.481537m75.097065 100.74283a13.782152 13.782152 0 0 1-12.84246-9.161999 13.116536 13.116536 0 0 1 9.161999-16.483766l31.323071-9.161999a13.351459 13.351459 0 1 1 7.321768 25.645765l-31.323071 9.161999z m-388.366936 7.321768h-3.680461l-31.323072-9.161999a13.351459 13.351459 0 0 1 7.321769-25.645765l31.323071 9.161999a13.116536 13.116536 0 0 1 9.161999 16.483766 13.782152 13.782152 0 0 1-12.84246 9.161999m71.455758-102.58306a15.661536 15.661536 0 0 1-11.002229-5.481538l-18.323997-25.645765c-3.680461-5.481538-3.680461-14.643536 3.680461-18.323997 5.481538-3.680461 14.643536-3.680461 18.323997 3.641307l18.323997 25.645765c3.680461 5.481538 3.680461 14.643536-3.680461 18.323997-1.84023 0-3.680461 1.84023-7.321768 1.840231m119.066826-42.129532a12.529229 12.529229 0 0 1-12.842459-12.803305v-33.084995a12.842459 12.842459 0 0 1 25.645765 0v31.323072c0 9.161998-5.481538 14.643536-12.803306 14.643536m20.164227 426.776852h-40.250147a12.842459 12.842459 0 1 1 0-25.645765h40.289301a12.529229 12.529229 0 0 1 12.84246 12.84246 13.782152 13.782152 0 0 1-12.84246 12.842459m29.326226-51.29153h-97.101522a12.529229 12.529229 0 0 1-12.84246-12.803306c0-7.321768 5.481538-14.643536 12.84246-14.643536h97.101522a12.529229 12.529229 0 0 1 12.803306 12.84246c0 7.321768-5.481538 14.643536-12.803306 14.643536m-49.451299-329.753638A128.228825 128.228825 0 1 0 683.195739 555.994272a128.620363 128.620363 0 0 0-128.228824-128.228825m0 282.103415A153.87459 153.87459 0 1 1 708.684889 555.994272a154.814282 154.814282 0 0 1-153.87459 153.87459" fill="#3396FF" p-id="3550"></path><path d="M1001.281533 138.692649h78.62091c9.905921 0 9.905921-15.387459 0-15.387459h-78.62091c-9.945075 0-9.945075 15.387459 0 15.387459" fill="#80CDFF" p-id="3551"></path><path d="M1048.305294 170.289798V91.668888c0-9.905921-15.426613-9.905921-15.426613 0v78.62091c0 9.670998 15.426613 9.945075 15.426613 0" fill="#80CDFF" p-id="3552"></path><path d="M224.469354 13.439516C249.723581 36.42282 274.977807 59.210355 300.271188 82.232813c5.364076 4.776768 13.390613-3.053999 8.026537-8.026538-25.254227-23.022458-50.547607-45.809992-75.801834-68.793296C227.092662 0.636211 219.261894 8.466979 224.469354 13.439516" fill="#D6EAFF" p-id="3553"></path><path d="M235.941429 85.600043C258.885579 60.345816 281.673114 35.248205 304.656418 9.798209 309.315725 4.434133 301.484957-3.592404 296.629881 1.771672 273.646577 27.025899 250.859042 52.319279 227.875738 77.573506c-4.776768 5.559845 3.249769 13.390613 8.065691 8.026537" fill="#D6EAFF" p-id="3554"></path></svg>