<?xml version="1.0" standalone="no"?><!DOCTYPE svg PUBLIC "-//W3C//DTD SVG 1.1//EN" "http://www.w3.org/Graphics/SVG/1.1/DTD/svg11.dtd"><svg t="1519548623900" class="icon" style="" viewBox="0 0 1228 1024" version="1.1" xmlns="http://www.w3.org/2000/svg" p-id="7014" xmlns:xlink="http://www.w3.org/1999/xlink" width="38.375" height="32"><defs><style type="text/css"></style></defs><path d="M829.828343 308.630739c14.307385 0 28.61477 2.043912 40.878244 2.043912C833.916168 132.854291 647.92016 0 433.309381 0 196.215569 0 0 165.556886 0 378.123752c0 122.634731 65.40519 222.786427 173.732535 300.45509l-42.922156 132.854292 151.249501-77.668663c55.185629 10.219561 98.107784 22.483034 151.249501 22.483034 14.307385 0 26.570858 0 40.878244-2.043912-8.175649-30.658683-14.307385-61.317365-14.307385-94.01996 2.043912-194.171657 163.512974-351.552894 369.948103-351.552894zM596.822355 188.03992c32.702595 0 55.185629 22.483034 55.185629 55.185629s-22.483034 55.185629-55.185629 55.185629-65.40519-22.483034-65.405189-55.185629 32.702595-55.185629 65.405189-55.185629z m-304.542914 112.41517c-32.702595 0-65.40519-22.483034-65.40519-55.185629s32.702595-55.185629 65.40519-55.185629S347.46507 212.566866 347.46507 245.269461s-22.483034 55.185629-55.185629 55.185629zM1226.347305 656.095808c0-177.820359-173.732535-322.938124-367.904191-322.938123-206.43513 0-369.948104 145.117764-369.948104 322.938123 0 177.820359 163.512974 322.938124 369.948104 322.938124 42.922156 0 85.844311-10.219561 130.810379-22.483034l118.546906 67.449102-32.702595-110.371257C1160.942116 844.135729 1226.347305 756.247505 1226.347305 656.095808z m-488.49501-57.229541c-22.483034 0-42.922156-22.483034-42.922155-44.966067s22.483034-44.966068 42.922155-44.966068c32.702595 0 55.185629 22.483034 55.185629 44.966068 0 24.526946-22.483034 44.966068-55.185629 44.966067z m239.137725 0c-22.483034 0-42.922156-22.483034-42.922156-44.966067s22.483034-44.966068 42.922156-44.966068c32.702595 0 55.185629 22.483034 55.185629 44.966068-2.043912 24.526946-22.483034 44.966068-55.185629 44.966067z" fill="#06BA13" p-id="7015"></path></svg>