<?xml version="1.0" standalone="no"?><!DOCTYPE svg PUBLIC "-//W3C//DTD SVG 1.1//EN" "http://www.w3.org/Graphics/SVG/1.1/DTD/svg11.dtd"><svg t="1520650224310" class="icon" style="" viewBox="0 0 1024 1024" version="1.1" xmlns="http://www.w3.org/2000/svg" p-id="4360" xmlns:xlink="http://www.w3.org/1999/xlink" width="32" height="32"><defs><style type="text/css"></style></defs><path d="M510.053801 253.005848H441.637427q-76.650292-4.491228-64.523977-83.536842A99.25614 99.25614 0 0 1 475.77076 89.824561h164.678363q71.859649 4.640936 59.883041 83.536843l-142.222222 677.876023q-22.156725 83.536842-104.795322 83.536842t-69.164912-83.536842z" fill="#FFE33F" p-id="4361"></path><path d="M453.614035 952.140351a88.327485 88.327485 0 0 1-70.512281-26.198831c-14.97076-17.665497-20.210526-43.564912-14.97076-76.650292L489.54386 269.473684H441.637427a87.878363 87.878363 0 0 1-66.769591-28.594152 92.219883 92.219883 0 0 1-14.97076-74.853801v-1.796491a116.173099 116.173099 0 0 1 113.777778-91.321638h164.678362a82.339181 82.339181 0 0 1 62.428071 27.396492 94.315789 94.315789 0 0 1 14.072514 74.853801l-140.725146 680.271345c-16.916959 63.625731-58.535673 96.711111-120.51462 96.711111z m56.439766-715.901755h20.509942l-129.796492 619.190644a60.930994 60.930994 0 0 0 7.635088 48.954386 57.787135 57.787135 0 0 0 44.912281 14.97076c47.157895 0 74.853801-22.605848 88.02807-71.111111l141.922807-677.127486a62.727485 62.727485 0 0 0-7.335672-48.505263 50.451462 50.451462 0 0 0-37.426901-14.97076H475.77076a81.890058 81.890058 0 0 0-82.339181 65.721638 60.781287 60.781287 0 0 0 7.335672 47.307602 55.990643 55.990643 0 0 0 41.768422 16.168421z" fill="#A5220C" p-id="4362"></path></svg>