<?xml version="1.0" standalone="no"?><!DOCTYPE svg PUBLIC "-//W3C//DTD SVG 1.1//EN" "http://www.w3.org/Graphics/SVG/1.1/DTD/svg11.dtd"><svg t="1520650234541" class="icon" style="" viewBox="0 0 1024 1024" version="1.1" xmlns="http://www.w3.org/2000/svg" p-id="13019" xmlns:xlink="http://www.w3.org/1999/xlink" width="32" height="32"><defs><style type="text/css"></style></defs><path d="M666.19883 777.581287q91.17193 0 74.853802 78.895906-14.97076 74.853801-98.65731 78.895906H250.161404q-86.680702 0-70.063158-78.895906a134.736842 134.736842 0 0 1 35.480701-59.883041q28.594152-27.845614 89.824562-83.536842a3544.177778 3544.177778 0 0 0 275.31228-269.473684q53.745029-59.883041 64.374269-111.382456 8.383626-83.536842-62.577777-92.818714-72.308772 0.149708-125.904094 101.80117-45.810526 88.327485-96.112281 88.177778-80.692398-4.491228-68.566081-83.536843Q369.777778 104.795322 621.28655 76.500585 865.309942 89.824561 830.877193 322.619883q-26.348538 125.305263-282.19883 366.783626-62.877193 59.883041-91.471345 88.177778z" fill="#FFE33F" p-id="13020"></path><path d="M250.161404 952.140351c-35.031579 0-59.883041-9.132164-74.853802-27.396491A82.788304 82.788304 0 0 1 163.780117 853.333333a149.707602 149.707602 0 0 1 39.522807-68.116959q29.94152-29.94152 91.621053-84.734503a3549.267836 3549.267836 0 0 0 273.964912-267.976608 241.927485 241.927485 0 0 0 59.883041-102.99883c5.539181-58.08655-22.007018-70.063158-47.157895-73.656141-41.319298 0-78.446784 31.887719-110.48421 93.118129-33.983626 65.422222-70.212865 97.160234-110.783626 97.160234a93.417544 93.417544 0 0 1-71.111111-29.94152 89.824561 89.824561 0 0 1-14.970761-73.05731v-2.54503C329.805848 173.660819 445.679532 79.195322 620.088889 59.883041h2.844444c87.129825 4.940351 149.707602 30.839766 187.733334 76.949708s48.355556 107.939181 36.229239 188.332163c-18.563743 88.776608-112.430409 211.68655-287.139181 376.51462l-61.679532 59.883041H666.19883c37.426901 0 64.074854 9.581287 79.34503 28.444445a81.440936 81.440936 0 0 1 11.527485 70.661988c-11.976608 56.888889-51.349708 88.776608-114.077193 92.219883z m333.099415-729.824562h2.245614c32.48655 4.34152 85.632749 24.402339 77.099415 111.083041v1.796492c-7.784795 36.82807-30.690058 76.949708-68.266667 119.766082a3579.808187 3579.808187 0 0 1-277.108772 270.072514C276.959064 761.562573 247.017544 789.557895 227.25614 808.421053a119.766082 119.766082 0 0 0-30.839766 51.79883 52.397661 52.397661 0 0 0 4.640936 43.864328c8.084211 10.030409 24.552047 14.97076 49.104094 14.97076h392.233918c47.008187-2.545029 73.506433-23.504094 82.339181-65.721638a50.750877 50.750877 0 0 0-4.790643-42.816374c-10.778947-13.323977-35.031579-16.018713-53.445614-16.018713H415.588304l29.941521-28.594152q28.594152-27.845614 91.621052-88.327486C703.925146 519.48538 797.192982 398.97076 813.960234 319.176608c10.479532-69.763743 0-124.407018-29.941521-161.384795s-85.632749-59.883041-162.28304-64.523977C461.099415 111.382456 358.4 194.619883 308.098246 349.567251a58.385965 58.385965 0 0 0 7.635087 45.660819 61.978947 61.978947 0 0 0 46.109942 17.366082c32.187135 0 61.529825-43.115789 80.243275-79.195322 38.474854-73.65614 85.932164-111.083041 141.174269-111.083041z" fill="#A5220C" p-id="13021"></path></svg>