<?xml version="1.0" standalone="no"?><!DOCTYPE svg PUBLIC "-//W3C//DTD SVG 1.1//EN" "http://www.w3.org/Graphics/SVG/1.1/DTD/svg11.dtd"><svg t="1520650202938" class="icon" style="" viewBox="0 0 1024 1024" version="1.1" xmlns="http://www.w3.org/2000/svg" p-id="5497" xmlns:xlink="http://www.w3.org/1999/xlink" width="32" height="32"><defs><style type="text/css"></style></defs><path d="M838.362573 294.774269a269.473684 269.473684 0 0 1-133.688889 181.146199q122.161404 69.614035 97.609357 209.590643Q729.525146 921.6 456.608187 940.163743 213.333333 926.240936 218.722807 726.530994q23.653801-69.614035 107.789474-78.895906 31.887719 0 56.739181 55.691228 32.636257 83.536842 105.54386 83.536842Q591.345029 777.730994 621.28655 675.480702q9.730994-111.382456-83.536842-102.100585-87.42924-18.563743-73.656141-83.536842 12.575439-59.883041 99.555556-83.536842 85.932164-18.414035 100.603509-88.177778 10.928655-74.853801-65.57193-78.895906-63.925146 0-118.568421 64.973099-46.708772 50.900585-83.387135 50.900585-67.368421-4.491228-54.493567-88.177778Q409.300585 99.705263 633.263158 76.500585 853.632749 89.824561 838.362573 294.774269z" fill="#FFE33F" p-id="5498"></path><path d="M456.608187 956.930994h-1.047953C283.546199 946.900585 198.063158 869.352047 202.105263 726.081871v-2.545029l0.748538-2.395322c17.964912-52.846784 58.835088-83.087719 121.712281-89.824561h1.796491c28.294737 0 52.547368 22.007018 72.009357 65.57193 19.312281 49.553216 48.505263 73.356725 89.824561 73.65614 59.883041-5.688889 98.507602-37.726316 117.071345-97.908772 2.694737-34.133333-2.395322-57.936842-14.97076-70.51228a60.781287 60.781287 0 0 0-50.152047-11.826901h-5.090058c-89.824561-19.162573-92.968421-72.907602-86.530994-103.298246 9.730994-46.708772 47.307602-79.045614 111.681871-96.261988 51.499415-11.078363 80.243275-35.780117 88.626901-74.853801a54.493567 54.493567 0 0 0-7.185965-42.516959 58.236257 58.236257 0 0 0-43.11579-16.318129c-36.678363 0-71.260819 19.312281-104.795321 59.134503S426.666667 371.723977 396.725146 371.723977a74.853801 74.853801 0 0 1-56.888889-25.899416c-14.97076-18.414035-19.461988-45.960234-13.773099-81.590643l1.047953-3.592982C373.819883 143.569591 476.219883 76.051462 631.466667 59.883041h2.844444c80.54269 5.090058 139.976608 29.192982 176.804678 71.410526 34.283041 39.522807 49.104094 94.91462 43.864328 164.678363v2.095906a281.300585 281.300585 0 0 1-119.766082 177.553217c71.111111 49.852632 99.106433 120.963743 82.938012 211.985965v1.946198c-50.451462 164.678363-171.564912 254.502924-360.196491 267.078363zM235.340351 729.674854C233.094737 851.087719 305.403509 914.563743 456.608187 923.396491c174.85848-12.126316 282.647953-91.471345 329.356725-242.526316 14.97076-85.483041-14.97076-147.761404-89.824561-190.577777l-24.851462-14.222223 24.701754-14.97076a250.760234 250.760234 0 0 0 125.754386-169.16959c4.34152-59.883041-7.635088-106.891228-35.780117-139.228071-29.94152-35.031579-81.740351-55.242105-152.402339-59.883041-142.222222 14.97076-232.196491 73.356725-274.863158 178.00234-3.74269 25.00117-1.197661 43.115789 7.185965 53.745029a42.516959 42.516959 0 0 0 32.187135 13.473684c17.964912 0 42.666667-15.869006 70.362573-45.810526 39.073684-46.559064 83.237427-70.362573 130.694737-70.362573a89.824561 89.824561 0 0 1 67.967251 28.743859A86.381287 86.381287 0 0 1 681.169591 320.374269c-11.377778 54.34386-49.553216 88.327485-113.628071 102.100585-51.050292 13.773099-79.794152 36.82807-86.830409 70.661988-4.640936 22.45614-2.245614 49.852632 58.385965 63.326316a89.824561 89.824561 0 0 1 74.853801 21.557895c20.659649 20.509942 28.893567 52.846784 24.851462 98.807017v3.293567c-22.45614 74.853801-72.009357 116.472515-147.312281 123.209357h-1.497076c-55.990643 0-96.711111-31.738012-121.11345-94.166082-8.832749-19.911111-23.354386-44.912281-40.421052-44.91228-49.104094 5.688889-79.195322 27.097076-93.118129 65.422222z" fill="#A5220C" p-id="5499"></path></svg>