<?xml version="1.0" standalone="no"?><!DOCTYPE svg PUBLIC "-//W3C//DTD SVG 1.1//EN" "http://www.w3.org/Graphics/SVG/1.1/DTD/svg11.dtd"><svg t="1519472359313" class="icon" style="" viewBox="0 0 1024 1024" version="1.1" xmlns="http://www.w3.org/2000/svg" p-id="7299" xmlns:xlink="http://www.w3.org/1999/xlink" width="16" height="16"><defs><style type="text/css"></style></defs><path d="M512.298 64.286c-109.038 0-208.68 42.974-280.119 115.842C96.818 312.782 78.02 525.777 185.18 680.857c43.24 63.523 103.398 112.104 176.718 141.997L487.86 948.037v1.869c13.158 13.077 35.719 13.077 48.877 0l125.961-127.052c71.439-29.893 133.48-78.474 176.72-141.997 107.158-155.08 86.479-368.075-46.999-500.729C720.978 107.26 621.338 64.286 512.298 64.286m1.881 674.491c-19.729 0-35.722-15.895-35.722-35.5 0-19.607 15.993-35.499 35.722-35.499 19.727 0 35.72 15.892 35.72 35.499 0.001 19.606-15.993 35.5-35.72 35.5z m156.04-353.126c-5.642 31.762-18.8 61.658-43.243 85.946-9.398 11.211-22.558 20.552-35.717 28.027-11.28 5.606-22.561 11.21-30.079 20.551-7.523 9.342-11.28 24.292-11.28 48.579 0 20.552-16.92 37.369-37.602 37.369-20.68 0-35.717-14.948-35.717-35.502 0-42.971 11.279-70.998 26.317-91.551 15.042-20.552 33.839-31.761 52.641-41.103 7.52-3.738 15.038-9.341 20.68-14.948 13.161-11.21 20.68-28.027 22.559-42.975 1.883-16.813-1.88-33.628-9.398-48.573-5.639-7.475-9.401-14.95-16.919-22.421-16.922-16.817-37.602-24.293-58.283-24.293-11.28 0-22.559 3.738-33.839 7.476-9.401 3.735-20.68 9.341-28.199 18.682-15.039 14.948-24.44 33.633-24.44 57.92 0 18.686-15.039 33.631-35.719 33.631-20.681 0-35.722-14.945-35.722-35.497 0-44.843 18.802-82.212 45.12-110.235 15.041-13.08 33.839-26.158 52.641-33.634 18.8-9.339 39.481-13.076 62.042-13.076 37.597 0 77.078 13.076 109.036 44.843 11.28 11.21 20.683 24.286 28.204 37.366 15.036 29.892 20.677 63.525 16.917 93.418z" p-id="7300" fill="#469dff"></path></svg>